<?xml version="1.0" encoding="utf-8"?>
<!-- Generator: Adobe Illustrator 16.0.0, SVG Export Plug-In . SVG Version: 6.00 Build 0)  -->
<!DOCTYPE svg PUBLIC "-//W3C//DTD SVG 1.1//EN" "http://www.w3.org/Graphics/SVG/1.1/DTD/svg11.dtd">
<svg version="1.1" xmlns="http://www.w3.org/2000/svg" xmlns:xlink="http://www.w3.org/1999/xlink" x="0px" y="0px"
	 width="607.298px" height="424.325px" viewBox="0 0 607.298 424.325" enable-background="new 0 0 607.298 424.325"
	 xml:space="preserve">
<g id="Layer_3" display="none">
	<path display="inline" fill="#214721" d="M778.378,385.297c0,6.627-5.372,12-12,12h-940.865c-6.627,0-12-5.373-12-12V-46.108
		c0-6.627,5.373-12,12-12h940.865c6.628,0,12,5.373,12,12V385.297z"/>
</g>
<g id="Layer_1">
	<g>
		<path fill="#FFFFFF" d="M576.868,425.973c0.318-5.437,0.5-10.911,0.5-16.428c0-152.423-123.564-275.986-275.987-275.986
			c-152.423,0-275.986,123.563-275.986,275.986c0,5.517,0.181,10.991,0.5,16.428H576.868z"/>
		
			<line fill="#FFFFFF" stroke="#95B795" stroke-width="20" stroke-miterlimit="10" x1="301.461" y1="169.307" x2="301.461" y2="65.307"/>
		<path fill="#95B795" d="M288.118,66.148c0,0,44.583-77.91,141.992-38.021S366.348,182.114,288.118,66.148z"/>
		<path fill="#95B795" d="M308.879,71.674c0,0-42.427,74.144-135.128,36.184C81.051,69.895,234.431-38.687,308.879,71.674z"/>
		<path opacity="0.2" fill="#F48887" d="M493.565,425.973c9.703-11.534,15.557-26.414,15.557-42.666
			c0-36.635-29.699-66.333-66.334-66.333c-36.633,0-66.332,29.698-66.332,66.333c0,16.252,5.854,31.132,15.557,42.666H493.565z"/>
		<path opacity="0.2" fill="#F48887" d="M205.803,425.973c9.369-11.438,14.995-26.061,14.995-42
			c0-36.635-29.698-66.333-66.333-66.333s-66.333,29.698-66.333,66.333c0,15.939,5.626,30.562,14.995,42H205.803z"/>
		<ellipse transform="matrix(0.9578 -0.2873 0.2873 0.9578 -82.8704 67.8611)" cx="189.798" cy="316.307" rx="33" ry="27.666"/>
		<ellipse transform="matrix(0.9308 0.3656 -0.3656 0.9308 143.5177 -127.2664)" cx="407.79" cy="315.307" rx="33" ry="27.666"/>
	</g>
</g>
<g id="Layer_2" display="none">
	<text transform="matrix(1 0 0 1 284.2969 122.1748)" display="inline"><tspan x="0" y="0" font-family="'Raleway-Regular'" font-size="40"> </tspan><tspan x="-205.062" y="84" fill="#95B795" font-family="'Luna'" font-size="70">  Colleen </tspan></text>
</g>
</svg>
